<svg width="100" height="68" xmlns="http://www.w3.org/2000/svg">
<g>
  <title>background</title>
  <rect fill="none" id="canvas_background" height="70" width="102" y="-1" x="-1"/>
</g>
<g>
  <title>Layer 1</title>
  <path stroke="null" fill="#0f0f00" id="svg_1" d="m91.061681,9.430398c-1.427335,-1.92337 -3.625962,-2.15059 -4.821022,-2.113253c-1.554997,0.049071 -2.815661,-0.386167 -3.962848,-0.857676c-2.324516,-0.950484 -5.081666,-1.884966 -8.454076,-0.918481c-3.656104,1.044359 -5.677423,2.965595 -5.851185,5.55569c-0.117024,1.73242 0.33334,3.378431 0.737604,4.618007c0.177309,0.544048 0.099293,1.237443 -0.214543,1.899901c-0.210997,0.439505 -0.654269,0.740332 -1.281942,0.868343c-0.803208,0.161081 -1.806775,0.023469 -2.691545,-0.3723c-1.22343,-0.544048 -2.164939,-1.28118 -3.157867,-2.063115c-0.374121,-0.292292 -0.748242,-0.585652 -1.136548,-0.867277c-1.991176,-1.457195 -4.705771,-2.011911 -7.099438,-2.360742c-1.902522,-0.277358 -3.413191,-0.648591 -4.606479,-1.564938c-2.578068,-1.972441 -6.046225,-3.13201 -10.028577,-3.351762c-5.136631,-0.283758 -9.303385,1.189438 -12.349547,4.377986c-2.001815,2.091918 -4.157888,3.534178 -6.782056,4.538c-2.303239,0.879011 -4.361793,1.942571 -6.294457,3.251487c-3.18269,2.15699 -3.287302,4.843094 -3.120632,7.408654c0.024823,0.387234 0.076243,0.776602 0.127662,1.162769c0.180855,1.341985 0.351071,2.609297 -0.742923,3.746464c-0.368802,0.3819 -0.150712,0.871544 0.484053,1.09343c0.638311,0.220819 1.450385,0.091741 1.817414,-0.291226c1.51067,-1.570272 1.297899,-3.149078 1.093994,-4.676679c-0.047873,-0.364832 -0.099293,-0.730731 -0.12057,-1.095563c-0.150712,-2.334073 -0.076243,-4.57107 2.452179,-6.285355c1.765994,-1.195839 3.640146,-2.164458 5.730615,-2.963461c2.959281,-1.1329 5.466426,-2.797047 7.661507,-5.089516c2.517783,-2.635966 5.730615,-3.800869 9.801622,-3.582183c3.283756,0.181349 6.035586,1.105164 8.179248,2.745842c1.767767,1.355853 4.062141,1.839096 6.071048,2.130321c2.063873,0.301893 4.179165,0.731798 5.672104,1.824161c0.370575,0.268824 0.723419,0.546182 1.076263,0.823539c1.065625,0.834207 2.164939,1.697216 3.68802,2.375676c1.608189,0.71793 3.477023,0.938749 5.125993,0.600586c1.450385,-0.294426 2.53906,-1.002755 2.985878,-1.943638c0.432633,-0.911014 0.52838,-1.851897 0.267736,-2.6477c-0.375894,-1.154235 -0.794343,-2.679703 -0.691504,-4.244641c0.134755,-2.014044 1.553224,-3.379498 4.335196,-4.174235c1.914933,-0.546182 3.52135,-0.142946 5.815724,0.795804c1.370596,0.560049 3.260706,1.196906 5.585222,1.1329c0.33866,-0.011734 1.368823,-0.03947 2.264231,1.168103c0.320929,0.430971 0.437952,0.593119 -0.854628,0.962218c-0.549657,0.156814 -1.058533,0.192017 -1.753583,0.199484c-3.597592,0.037337 -5.620684,1.193705 -5.849412,3.343228c-0.273055,2.550625 -0.439725,4.856962 -0.512422,7.052356c-0.090427,2.851452 -2.500052,4.700148 -7.165042,5.495952c-5.562172,0.949417 -8.672166,2.754376 -9.505516,5.51942c-0.62058,2.054581 -1.21811,4.434525 -0.450364,6.690724c0.196813,0.583518 0.331567,1.183038 0.466322,1.784691c0.464549,2.066316 0.943282,4.200904 3.760716,5.906654c-0.015958,0.080007 -0.343979,0.330696 -0.890089,0.364832c-1.452158,0.098142 -2.820981,-0.434172 -3.44688,-1.341985c-1.567408,-2.273267 -2.241181,-4.766287 -2.893677,-7.177167l-0.033689,-0.121611c-0.177309,-0.649657 -0.452137,-1.365454 -1.329815,-1.944705c0.464549,-0.745666 0.193266,-1.605475 -0.448591,-2.270067c-0.475187,-0.492843 -0.780158,-1.058227 -1.106406,-1.657746c-0.508876,-0.944083 -1.086902,-2.008711 -2.462817,-2.867453c0,-0.005334 0,-0.010668 0.001773,-0.017068c0.026596,-0.15468 0.063831,-0.364832 -0.037235,-0.60912c-0.173762,-0.428838 -0.90782,-0.656058 -1.620601,-0.554716c-0.656042,0.097075 -1.065625,0.499244 -0.994701,0.897146c-0.492918,0.022402 -1.017752,0.087474 -1.4823,0.29976c-3.452199,1.576672 -7.413274,1.485998 -11.604851,1.39319c-0.854628,-0.019202 -1.711028,-0.038403 -2.563883,-0.043737c-1.668474,-0.010668 -3.207513,-0.408569 -4.835207,-0.828873c-1.117044,-0.289092 -2.273097,-0.578184 -3.519577,-0.763801c-0.085108,-0.117344 -0.187947,-0.22722 -0.299652,-0.332829c-0.393625,-0.374433 -1.214564,-0.484309 -1.835144,-0.247489c-0.62058,0.236821 -0.804981,0.730731 -0.411356,1.104097c0.076243,0.071473 0.104612,0.106676 0.111704,0.106676c-0.003546,0.013868 -0.015958,0.044804 -0.05142,0.101342c-1.831598,2.813048 -2.512464,5.375408 -2.081603,7.837491c0.028369,0.156814 0.001773,0.18455 -0.203905,0.390434c-0.070923,0.070406 -0.14362,0.145079 -0.21277,0.222953c-1.686205,1.889233 -2.08515,3.96515 -1.219883,6.34936c0.250005,0.685927 0.98229,1.110498 1.570955,1.451861c0.640084,0.3723 0.796116,0.494977 0.751789,0.712596c0,0.004267 0.001773,0.007467 0.001773,0.011734c-0.047873,0.008534 -0.108158,0.028803 -0.148939,0.03307c-2.317424,0.206952 -3.83164,0.149347 -4.501867,-0.170682c-0.198586,-0.096008 -0.471641,-0.278425 -0.537245,-0.759534c-0.33334,-2.437548 -0.303198,-4.940169 -0.274828,-7.359583c0.017731,-1.521201 0.037235,-3.093606 -0.033689,-4.64681c-0.037235,-0.852342 0.173762,-1.698283 0.398944,-2.593295c0.260644,-1.040092 0.530153,-2.115387 0.393625,-3.237619c-0.031916,-0.259223 -0.008865,-0.52698 0.010639,-0.794737c0.07447,-1.011289 0.177309,-2.397011 -2.319197,-3.271755c-0.631219,-0.219753 -1.448612,-0.093875 -1.817414,0.289092c-0.368802,0.3819 -0.154259,0.871544 0.480506,1.094497c1.010659,0.354165 1.076263,0.778735 1.000021,1.81776c-0.024823,0.330696 -0.044327,0.661392 -0.007092,0.98142c0.115251,0.94515 -0.12057,1.8871 -0.370575,2.883454c-0.230501,0.924882 -0.471641,1.880699 -0.425541,2.87492c0.06915,1.525468 0.049646,3.085072 0.031916,4.592405c-0.028369,2.455683 -0.058512,4.993507 0.283694,7.502529c0.111704,0.815005 0.627673,1.447594 1.535493,1.881766c1.026617,0.489643 2.41849,0.641123 3.836959,0.641123c0.923778,0 1.858195,-0.065072 2.711049,-0.139746c0.810301,-0.07254 1.476981,-0.314694 2.065646,-0.52698c0.207451,-0.073606 0.411356,-0.150413 0.622353,-0.212285c0.656042,-0.198418 0.922005,-0.67846 0.593984,-1.074228c-0.200359,-0.241088 -0.578026,-0.3787 -0.987609,-0.41817c-0.274828,-0.574984 -0.945055,-0.971819 -1.441519,-1.260911c-0.461002,-0.26669 -0.746469,-0.440572 -0.819166,-0.643257c-0.702142,-1.934037 -0.441499,-3.542713 0.801435,-5.044712c0.799662,0.442706 0.966332,1.122232 1.136548,2.140989l0.042554,0.251756c0.207451,1.191572 0.586892,2.746909 1.693298,4.204104c0.820939,1.080629 2.113519,1.810293 3.737666,2.11112c0.524834,0.097075 1.072717,0.145079 1.636559,0.145079c1.24648,0 2.558564,-0.235754 3.821001,-0.695528c0.173762,-0.062939 0.382987,-0.102409 0.64895,-0.153614c0.250005,-0.046937 0.494691,-0.094942 0.739377,-0.158947c0.672,-0.178149 0.978744,-0.649657 0.682638,-1.05396c-0.234047,-0.320028 -0.773066,-0.492843 -1.322722,-0.467241c-0.136528,-0.274158 -0.425541,-0.606987 -1.164918,-0.79047c-1.523081,-0.377633 -1.753583,-1.088096 -2.028411,-2.310604c-0.056739,-0.253889 -0.115251,-0.508845 -0.18972,-0.755267c-0.106385,-0.350964 -0.138301,-0.725397 -0.171989,-1.121166c-0.02305,-0.265623 -0.0461,-0.531247 -0.090427,-0.795804c-0.491145,-2.955994 -0.358163,-5.376474 0.374121,-7.593203c0.510649,0.054405 1.039029,0.087474 1.588685,0.090675c0.829804,0.005334 1.661382,0.023469 2.49296,0.04267c1.014205,0.022402 2.03373,0.045871 3.056801,0.045871c2.063873,0 4.127745,-0.101342 6.127787,-0.480042c0.429087,0.875811 0.345752,1.81456 0.223409,2.806648c-0.035462,0.286959 -0.070923,0.572851 -0.093974,0.857676c-0.09752,1.240643 -0.363483,2.513288 -0.62058,3.745397c-0.203905,0.980353 -0.40781,1.961773 -0.539018,2.953861c-0.117024,0.87261 -0.250005,1.861498 0.228728,2.86852c0.494691,1.046492 2.241181,1.891367 3.751851,2.2658c0.709235,0.174949 1.400738,0.26349 2.039049,0.26349c0.632992,0 1.216337,-0.085341 1.719894,-0.257089c0.680865,-0.23042 1.819187,-0.615521 2.040823,-1.383589c0.14362,-0.497111 -0.148939,-1.000622 -0.868812,-1.499866c-1.136548,-0.786203 -1.468116,-1.749488 -1.017752,-2.942126c0.141847,-0.370166 0.257098,-0.744599 0.370575,-1.120099c0.349298,-1.157435 0.673773,-2.181526 1.742944,-3.014666c0.179082,0.214419 0.292559,0.489643 0.397171,0.877944l0.033689,0.122677c0.677319,2.501554 1.375915,5.088449 3.063893,7.532398c0.989382,1.434793 3.18269,2.339406 5.57813,2.339406c0.198586,0 0.398944,-0.006401 0.599303,-0.019202c1.409604,-0.088541 2.65963,-0.648591 3.106447,-1.394256c0.349298,-0.581385 0.14362,-1.184104 -0.55143,-1.615076c-2.241181,-1.388923 -2.641899,-3.176814 -3.065666,-5.069247c-0.145393,-0.636856 -0.28724,-1.270512 -0.498237,-1.8903c-0.670227,-1.976708 -0.111704,-4.177435 0.462776,-6.084803c0.64363,-2.133522 3.063893,-3.489375 7.615406,-4.26491c5.838774,-0.997421 8.984229,-3.418968 9.09948,-7.004351c0.06915,-2.171925 0.23582,-4.45586 0.508876,-6.980883c0.138301,-1.306782 1.046121,-1.823094 3.237656,-1.845496c0.872359,-0.009601 1.82096,-0.058672 2.851123,-0.354165c2.409624,-0.693395 3.131271,-1.721752 2.138342,-3.061603zm-59.843441,31.220888c0.039008,0.237888 0.060285,0.477909 0.079789,0.71793c0.037235,0.428838 0.07447,0.87261 0.21277,1.325984c0.06915,0.22402 0.118797,0.453373 0.171989,0.682727c0.271282,1.209707 0.613488,2.699972 3.292622,3.47764c-1.039029,0.322162 -2.031957,0.422437 -2.886585,0.264557c-0.877678,-0.162148 -1.604643,-0.594186 -2.101107,-1.247043c-0.946828,-1.245977 -1.281942,-2.635966 -1.466342,-3.706994l-0.040781,-0.244288c-0.191493,-1.153168 -0.47696,-2.692504 -2.898996,-3.554447c-0.003546,-0.058672 0.008865,-0.10881 -0.001773,-0.171748c-0.368802,-2.103652 0.216317,-4.322515 1.728759,-6.758996c0.881224,0.155747 1.755356,0.358432 2.664949,0.594186c0.554976,0.144013 1.122364,0.283758 1.698617,0.416037c-0.828031,2.41408 -0.984063,5.02551 -0.45391,8.204457zm20.901143,0.216552c-0.106385,0.352031 -0.210997,0.704062 -0.343979,1.050759c-0.634765,1.678015 -0.081562,3.181081 1.601097,4.348117c0.124116,0.085341 0.18972,0.147213 0.228728,0.166415c-0.157805,0.090675 -0.526607,0.214419 -0.698596,0.273091c-0.207451,0.070406 -0.711008,0.089608 -1.441519,-0.092808c-1.031936,-0.254956 -2.000042,-0.792603 -2.203946,-1.223575c-0.345752,-0.729664 -0.244686,-1.493465 -0.134755,-2.311671c0.127662,-0.959018 0.328021,-1.916969 0.526607,-2.872787c0.262417,-1.261978 0.535472,-2.56556 0.636538,-3.868075c0.021277,-0.26989 0.054966,-0.541914 0.088654,-0.815005c0.138301,-1.107298 0.283694,-2.34794 -0.397171,-3.570448c0.524834,-0.177082 1.046121,-0.371233 1.55677,-0.604853c0.104612,-0.020268 0.416675,-0.022402 0.627673,-0.023469c0.104612,-0.001067 0.200359,-0.007467 0.304971,-0.009601c0.778385,0.571784 1.202153,1.298248 1.620601,2.071649c0.352844,0.650724 0.716327,1.324917 1.333361,1.964973c0.030142,0.029869 0.709235,0.745666 0.05142,1.095563c-2.400759,1.272646 -2.907862,2.946393 -3.356453,4.421723z"/>
  <text font-weight="normal" stroke="#000" transform="matrix(2.506947722735492,0,0,2.25232983336967,-29.696870444013108,-63.62638520835966) " xml:space="preserve" text-anchor="start" font-family="Arvo, sans-serif" font-size="5" id="svg_2" y="56" x="14.910469" stroke-width="0" fill="#078d00">SilkRoadBites</text>
</g>
</svg>
